# This file uses centimeters as units for non-parametric coordinates.

mtllib Mueble.mtl
g default
v -1.022377 -0.000642 0.531773
v -0.864020 -0.000642 0.531773
v -1.022377 0.387215 0.531773
v -0.864020 0.387215 0.531773
v -1.022377 0.387215 0.380624
v -0.864020 0.387215 0.380624
v -1.022377 -0.000642 0.380624
v -0.864020 -0.000642 0.380624
vt 0.335500 0.000000
vt 0.664500 0.000000
vt 0.335500 0.250000
vt 0.664500 0.250000
vt 0.335500 0.500000
vt 0.664500 0.500000
vt 0.335500 0.750000
vt 0.664500 0.750000
vt 0.335500 1.000000
vt 0.664500 1.000000
vt 0.993500 0.000000
vt 0.993500 0.250000
vt 0.006500 0.000000
vt 0.006500 0.250000
vn 0.000000 0.000000 1.000000
vn 0.000000 0.000000 1.000000
vn 0.000000 0.000000 1.000000
vn 0.000000 0.000000 1.000000
vn 0.000000 1.000000 0.000000
vn 0.000000 1.000000 0.000000
vn 0.000000 1.000000 0.000000
vn 0.000000 1.000000 0.000000
vn 0.000000 0.000000 -1.000000
vn 0.000000 0.000000 -1.000000
vn 0.000000 0.000000 -1.000000
vn 0.000000 0.000000 -1.000000
vn 0.000000 -1.000000 0.000000
vn 0.000000 -1.000000 0.000000
vn 0.000000 -1.000000 0.000000
vn 0.000000 -1.000000 0.000000
vn 1.000000 0.000000 0.000000
vn 1.000000 0.000000 0.000000
vn 1.000000 0.000000 0.000000
vn 1.000000 0.000000 0.000000
vn -1.000000 0.000000 0.000000
vn -1.000000 0.000000 0.000000
vn -1.000000 0.000000 0.000000
vn -1.000000 0.000000 0.000000
s off
g pCube1
usemtl phong6SG
f 1/1/1 2/2/2 4/4/3 3/3/4
f 3/3/5 4/4/6 6/6/7 5/5/8
f 5/5/9 6/6/10 8/8/11 7/7/12
f 7/7/13 8/8/14 2/10/15 1/9/16
f 2/2/17 8/11/18 6/12/19 4/4/20
f 7/13/21 1/1/22 3/3/23 5/14/24
g default
v 0.796991 -0.000642 0.531773
v 0.955348 -0.000642 0.531773
v 0.796991 0.387215 0.531773
v 0.955348 0.387215 0.531773
v 0.796991 0.387215 0.380624
v 0.955348 0.387215 0.380624
v 0.796991 -0.000642 0.380624
v 0.955348 -0.000642 0.380624
vt 0.335500 0.000000
vt 0.664500 0.000000
vt 0.335500 0.250000
vt 0.664500 0.250000
vt 0.335500 0.500000
vt 0.664500 0.500000
vt 0.335500 0.750000
vt 0.664500 0.750000
vt 0.335500 1.000000
vt 0.664500 1.000000
vt 0.993500 0.000000
vt 0.993500 0.250000
vt 0.006500 0.000000
vt 0.006500 0.250000
vn 0.000000 0.000000 1.000000
vn 0.000000 0.000000 1.000000
vn 0.000000 0.000000 1.000000
vn 0.000000 0.000000 1.000000
vn 0.000000 1.000000 0.000000
vn 0.000000 1.000000 0.000000
vn 0.000000 1.000000 0.000000
vn 0.000000 1.000000 0.000000
vn 0.000000 0.000000 -1.000000
vn 0.000000 0.000000 -1.000000
vn 0.000000 0.000000 -1.000000
vn 0.000000 0.000000 -1.000000
vn 0.000000 -1.000000 0.000000
vn 0.000000 -1.000000 0.000000
vn 0.000000 -1.000000 0.000000
vn 0.000000 -1.000000 0.000000
vn 1.000000 0.000000 0.000000
vn 1.000000 0.000000 0.000000
vn 1.000000 0.000000 0.000000
vn 1.000000 0.000000 0.000000
vn -1.000000 0.000000 0.000000
vn -1.000000 0.000000 0.000000
vn -1.000000 0.000000 0.000000
vn -1.000000 0.000000 0.000000
s off
g pasted__pCube1 group
usemtl phong6SG
f 9/15/25 10/16/26 12/18/27 11/17/28
f 11/17/29 12/18/30 14/20/31 13/19/32
f 13/19/33 14/20/34 16/22/35 15/21/36
f 15/21/37 16/22/38 10/24/39 9/23/40
f 10/16/41 16/25/42 14/26/43 12/18/44
f 15/27/45 9/15/46 11/17/47 13/28/48
g default
v -1.022377 -0.000642 -0.306442
v -0.864020 -0.000642 -0.306442
v -1.022377 0.387215 -0.306442
v -0.864020 0.387215 -0.306442
v -1.022377 0.387215 -0.457592
v -0.864020 0.387215 -0.457592
v -1.022377 -0.000642 -0.457592
v -0.864020 -0.000642 -0.457592
vt 0.335500 0.000000
vt 0.664500 0.000000
vt 0.335500 0.250000
vt 0.664500 0.250000
vt 0.335500 0.500000
vt 0.664500 0.500000
vt 0.335500 0.750000
vt 0.664500 0.750000
vt 0.335500 1.000000
vt 0.664500 1.000000
vt 0.993500 0.000000
vt 0.993500 0.250000
vt 0.006500 0.000000
vt 0.006500 0.250000
vn 0.000000 0.000000 1.000000
vn 0.000000 0.000000 1.000000
vn 0.000000 0.000000 1.000000
vn 0.000000 0.000000 1.000000
vn 0.000000 1.000000 0.000000
vn 0.000000 1.000000 0.000000
vn 0.000000 1.000000 0.000000
vn 0.000000 1.000000 0.000000
vn 0.000000 0.000000 -1.000000
vn 0.000000 0.000000 -1.000000
vn 0.000000 0.000000 -1.000000
vn 0.000000 0.000000 -1.000000
vn 0.000000 -1.000000 0.000000
vn 0.000000 -1.000000 0.000000
vn 0.000000 -1.000000 0.000000
vn 0.000000 -1.000000 0.000000
vn 1.000000 0.000000 0.000000
vn 1.000000 0.000000 0.000000
vn 1.000000 0.000000 0.000000
vn 1.000000 0.000000 0.000000
vn -1.000000 0.000000 0.000000
vn -1.000000 0.000000 0.000000
vn -1.000000 0.000000 0.000000
vn -1.000000 0.000000 0.000000
s off
g pasted__pCube1 group1
usemtl phong6SG
f 17/29/49 18/30/50 20/32/51 19/31/52
f 19/31/53 20/32/54 22/34/55 21/33/56
f 21/33/57 22/34/58 24/36/59 23/35/60
f 23/35/61 24/36/62 18/38/63 17/37/64
f 18/30/65 24/39/66 22/40/67 20/32/68
f 23/41/69 17/29/70 19/31/71 21/42/72
g default
v 0.796991 -0.000642 -0.306442
v 0.955348 -0.000642 -0.306442
v 0.796991 0.387215 -0.306442
v 0.955348 0.387215 -0.306442
v 0.796991 0.387215 -0.457592
v 0.955348 0.387215 -0.457592
v 0.796991 -0.000642 -0.457592
v 0.955348 -0.000642 -0.457592
vt 0.335500 0.000000
vt 0.664500 0.000000
vt 0.335500 0.250000
vt 0.664500 0.250000
vt 0.335500 0.500000
vt 0.664500 0.500000
vt 0.335500 0.750000
vt 0.664500 0.750000
vt 0.335500 1.000000
vt 0.664500 1.000000
vt 0.993500 0.000000
vt 0.993500 0.250000
vt 0.006500 0.000000
vt 0.006500 0.250000
vn 0.000000 0.000000 1.000000
vn 0.000000 0.000000 1.000000
vn 0.000000 0.000000 1.000000
vn 0.000000 0.000000 1.000000
vn 0.000000 1.000000 0.000000
vn 0.000000 1.000000 0.000000
vn 0.000000 1.000000 0.000000
vn 0.000000 1.000000 0.000000
vn 0.000000 0.000000 -1.000000
vn 0.000000 0.000000 -1.000000
vn 0.000000 0.000000 -1.000000
vn 0.000000 0.000000 -1.000000
vn 0.000000 -1.000000 0.000000
vn 0.000000 -1.000000 0.000000
vn 0.000000 -1.000000 0.000000
vn 0.000000 -1.000000 0.000000
vn 1.000000 0.000000 0.000000
vn 1.000000 0.000000 0.000000
vn 1.000000 0.000000 0.000000
vn 1.000000 0.000000 0.000000
vn -1.000000 0.000000 0.000000
vn -1.000000 0.000000 0.000000
vn -1.000000 0.000000 0.000000
vn -1.000000 0.000000 0.000000
s off
g group1 pasted__pasted__pCube1 pasted__group
usemtl phong6SG
f 25/43/73 26/44/74 28/46/75 27/45/76
f 27/45/77 28/46/78 30/48/79 29/47/80
f 29/47/81 30/48/82 32/50/83 31/49/84
f 31/49/85 32/50/86 26/52/87 25/51/88
f 26/44/89 32/53/90 30/54/91 28/46/92
f 31/55/93 25/43/94 27/45/95 29/56/96
g default
v -1.059890 0.369607 0.583858
v 0.992760 0.369607 0.583858
v -1.059890 0.705231 0.583858
v 0.992760 0.705231 0.583858
v -1.059890 0.705231 -0.496959
v 0.992760 0.705231 -0.496959
v -1.059890 0.369607 -0.496959
v 0.992760 0.369607 -0.496959
v -1.023868 0.375497 0.606187
v 0.956738 0.375497 0.606187
v 0.956738 0.699341 0.606187
v -1.023868 0.699341 0.606187
vt 0.375000 0.000000
vt 0.625000 0.000000
vt 0.003660 0.250000
vt 0.996340 0.250000
vt 0.003660 0.500000
vt 0.996340 0.500000
vt 0.375000 0.750000
vt 0.625000 0.750000
vt 0.375000 1.000000
vt 0.625000 1.000000
vt 0.875000 0.000000
vt 0.875000 0.250000
vt 0.125000 0.000000
vt 0.125000 0.250000
vt 0.375000 0.000000
vt 0.625000 0.000000
vt 0.625000 0.250000
vt 0.375000 0.250000
vn 0.000000 0.000000 1.000000
vn 0.000000 0.000000 1.000000
vn 0.000000 0.000000 1.000000
vn 0.000000 0.000000 1.000000
vn 0.000000 1.000000 0.000000
vn 0.000000 1.000000 0.000000
vn 0.000000 1.000000 0.000000
vn 0.000000 1.000000 0.000000
vn 0.000000 0.000000 -1.000000
vn 0.000000 0.000000 -1.000000
vn 0.000000 0.000000 -1.000000
vn 0.000000 0.000000 -1.000000
vn 0.000000 -1.000000 0.000000
vn 0.000000 -1.000000 0.000000
vn 0.000000 -1.000000 0.000000
vn 0.000000 -1.000000 0.000000
vn 1.000000 0.000000 0.000000
vn 1.000000 0.000000 0.000000
vn 1.000000 0.000000 0.000000
vn 1.000000 0.000000 0.000000
vn -1.000000 0.000000 0.000000
vn -1.000000 0.000000 0.000000
vn -1.000000 0.000000 0.000000
vn -1.000000 0.000000 0.000000
vn 0.000000 -0.966927 0.255052
vn 0.000000 -0.966927 0.255052
vn 0.000000 -0.966927 0.255052
vn 0.000000 -0.966927 0.255052
vn 0.526864 0.000000 0.849949
vn 0.526864 0.000000 0.849949
vn 0.526864 0.000000 0.849949
vn 0.526864 0.000000 0.849949
vn 0.000000 0.966928 0.255050
vn 0.000000 0.966928 0.255050
vn 0.000000 0.966928 0.255050
vn 0.000000 0.966928 0.255050
vn -0.526864 0.000000 0.849949
vn -0.526864 0.000000 0.849949
vn -0.526864 0.000000 0.849949
vn -0.526864 0.000000 0.849949
s off
g pCube2
usemtl phong1SG
f 41/71/97 42/72/98 43/73/99 44/74/100
f 35/59/101 36/60/102 38/62/103 37/61/104
f 37/61/105 38/62/106 40/64/107 39/63/108
f 39/63/109 40/64/110 34/66/111 33/65/112
f 34/58/113 40/67/114 38/68/115 36/60/116
f 39/69/117 33/57/118 35/59/119 37/70/120
f 33/57/121 34/58/122 42/72/123 41/71/124
f 34/58/125 36/60/126 43/73/127 42/72/128
f 36/60/129 35/59/130 44/74/131 43/73/132
f 35/59/133 33/57/134 41/71/135 44/74/136
g default
v -0.826557 0.426481 0.635130
v -0.250917 0.426481 0.635130
v -0.826557 0.645972 0.635130
v -0.250917 0.645972 0.635130
v -0.826557 0.645972 -0.071701
v -0.250917 0.645972 -0.071701
v -0.826557 0.426481 -0.071701
v -0.250917 0.426481 -0.071701
v -0.802999 0.430333 0.638362
v -0.274475 0.430333 0.638362
v -0.274475 0.642120 0.638362
v -0.802999 0.642120 0.638362
vt 0.375000 0.000000
vt 0.625000 0.000000
vt 0.375000 0.250000
vt 0.625000 0.250000
vt 0.375000 0.500000
vt 0.625000 0.500000
vt 0.375000 0.750000
vt 0.625000 0.750000
vt 0.375000 1.000000
vt 0.625000 1.000000
vt 0.875000 0.000000
vt 0.875000 0.250000
vt 0.125000 0.000000
vt 0.125000 0.250000
vt 0.375000 0.000000
vt 0.625000 0.000000
vt 0.625000 0.250000
vt 0.375000 0.250000
vn 0.000000 0.000000 1.000000
vn 0.000000 0.000000 1.000000
vn 0.000000 0.000000 1.000000
vn 0.000000 0.000000 1.000000
vn 0.000000 1.000000 0.000000
vn 0.000000 1.000000 0.000000
vn 0.000000 1.000000 0.000000
vn 0.000000 1.000000 0.000000
vn 0.000000 0.000000 -1.000000
vn 0.000000 0.000000 -1.000000
vn 0.000000 0.000000 -1.000000
vn 0.000000 0.000000 -1.000000
vn 0.000000 -1.000000 0.000000
vn 0.000000 -1.000000 0.000000
vn 0.000000 -1.000000 0.000000
vn 0.000000 -1.000000 0.000000
vn 1.000000 0.000000 0.000000
vn 1.000000 0.000000 0.000000
vn 1.000000 0.000000 0.000000
vn 1.000000 0.000000 0.000000
vn -1.000000 0.000000 0.000000
vn -1.000000 0.000000 0.000000
vn -1.000000 0.000000 0.000000
vn -1.000000 0.000000 0.000000
vn 0.000000 -0.642724 0.766097
vn 0.000000 -0.642724 0.766098
vn 0.000000 -0.642724 0.766097
vn 0.000000 -0.642724 0.766098
vn 0.135903 0.000000 0.990722
vn 0.135903 0.000000 0.990722
vn 0.135903 0.000000 0.990722
vn 0.135903 0.000000 0.990722
vn 0.000000 0.642726 0.766096
vn 0.000000 0.642726 0.766096
vn 0.000000 0.642726 0.766096
vn 0.000000 0.642726 0.766096
vn -0.135904 0.000000 0.990722
vn -0.135904 0.000000 0.990722
vn -0.135904 0.000000 0.990722
vn -0.135904 0.000000 0.990722
s off
g pasted__pCube2 group2
usemtl phong3SG
f 53/89/137 54/90/138 55/91/139 56/92/140
f 47/77/141 48/78/142 50/80/143 49/79/144
f 49/79/145 50/80/146 52/82/147 51/81/148
f 51/81/149 52/82/150 46/84/151 45/83/152
f 46/76/153 52/85/154 50/86/155 48/78/156
f 51/87/157 45/75/158 47/77/159 49/88/160
f 45/75/161 46/76/162 54/90/163 53/89/164
f 46/76/165 48/78/166 55/91/167 54/90/168
f 48/78/169 47/77/170 56/92/171 55/91/172
f 47/77/173 45/75/174 53/89/175 56/92/176
g default
v 0.187463 0.426481 0.635130
v 0.763102 0.426481 0.635130
v 0.187463 0.645972 0.635130
v 0.763102 0.645972 0.635130
v 0.187463 0.645972 -0.071701
v 0.763102 0.645972 -0.071701
v 0.187463 0.426481 -0.071701
v 0.763102 0.426481 -0.071701
v 0.211020 0.430333 0.638362
v 0.739545 0.430333 0.638362
v 0.739545 0.642120 0.638362
v 0.211020 0.642120 0.638362
vt 0.375000 0.000000
vt 0.625000 0.000000
vt 0.375000 0.250000
vt 0.625000 0.250000
vt 0.375000 0.500000
vt 0.625000 0.500000
vt 0.375000 0.750000
vt 0.625000 0.750000
vt 0.375000 1.000000
vt 0.625000 1.000000
vt 0.875000 0.000000
vt 0.875000 0.250000
vt 0.125000 0.000000
vt 0.125000 0.250000
vt 0.375000 0.000000
vt 0.625000 0.000000
vt 0.625000 0.250000
vt 0.375000 0.250000
vn 0.000000 0.000000 1.000000
vn 0.000000 0.000000 1.000000
vn 0.000000 0.000000 1.000000
vn 0.000000 0.000000 1.000000
vn 0.000000 1.000000 0.000000
vn 0.000000 1.000000 0.000000
vn 0.000000 1.000000 0.000000
vn 0.000000 1.000000 0.000000
vn 0.000000 0.000000 -1.000000
vn 0.000000 0.000000 -1.000000
vn 0.000000 0.000000 -1.000000
vn 0.000000 0.000000 -1.000000
vn 0.000000 -1.000000 0.000000
vn 0.000000 -1.000000 0.000000
vn 0.000000 -1.000000 0.000000
vn 0.000000 -1.000000 0.000000
vn 1.000000 0.000000 0.000000
vn 1.000000 0.000000 0.000000
vn 1.000000 0.000000 0.000000
vn 1.000000 0.000000 0.000000
vn -1.000000 0.000000 0.000000
vn -1.000000 0.000000 0.000000
vn -1.000000 0.000000 0.000000
vn -1.000000 0.000000 0.000000
vn 0.000000 -0.642724 0.766097
vn 0.000000 -0.642724 0.766097
vn 0.000000 -0.642724 0.766097
vn 0.000000 -0.642724 0.766097
vn 0.135903 0.000000 0.990722
vn 0.135903 0.000000 0.990722
vn 0.135903 0.000000 0.990722
vn 0.135903 0.000000 0.990722
vn 0.000000 0.642726 0.766096
vn 0.000000 0.642726 0.766096
vn 0.000000 0.642726 0.766096
vn 0.000000 0.642726 0.766096
vn -0.135904 0.000000 0.990722
vn -0.135904 0.000000 0.990722
vn -0.135904 0.000000 0.990722
vn -0.135904 0.000000 0.990722
s off
g pasted__pasted__pCube2 pasted__group2 group3
usemtl phong2SG
f 65/107/177 66/108/178 67/109/179 68/110/180
f 59/95/181 60/96/182 62/98/183 61/97/184
f 61/97/185 62/98/186 64/100/187 63/99/188
f 63/99/189 64/100/190 58/102/191 57/101/192
f 58/94/193 64/103/194 62/104/195 60/96/196
f 63/105/197 57/93/198 59/95/199 61/106/200
f 57/93/201 58/94/202 66/108/203 65/107/204
f 58/94/205 60/96/206 67/109/207 66/108/208
f 60/96/209 59/95/210 68/110/211 67/109/212
f 59/95/213 57/93/214 65/107/215 68/110/216
g default
v 0.434304 0.510124 0.671646
v 0.537359 0.510124 0.671646
v 0.434304 0.575680 0.671646
v 0.537359 0.575680 0.671646
v 0.434304 0.575680 0.608306
v 0.537359 0.575680 0.608306
v 0.434304 0.510124 0.608306
v 0.537359 0.510124 0.608306
v 0.445095 0.567397 0.665013
v 0.526568 0.567397 0.665013
v 0.526568 0.567397 0.614938
v 0.445095 0.567397 0.614938
vt 0.375000 0.000000
vt 0.625000 0.000000
vt 0.375000 0.250000
vt 0.625000 0.250000
vt 0.375000 0.500000
vt 0.625000 0.500000
vt 0.375000 0.750000
vt 0.625000 0.750000
vt 0.375000 1.000000
vt 0.625000 1.000000
vt 0.875000 0.000000
vt 0.875000 0.250000
vt 0.125000 0.000000
vt 0.125000 0.250000
vt 0.375000 0.250000
vt 0.625000 0.250000
vt 0.625000 0.500000
vt 0.375000 0.500000
vn 0.000000 0.000000 1.000000
vn 0.000000 0.000000 1.000000
vn 0.000000 0.000000 1.000000
vn 0.000000 0.000000 1.000000
vn 0.000000 1.000000 0.000000
vn 0.000000 1.000000 0.000000
vn 0.000000 1.000000 0.000000
vn 0.000000 1.000000 0.000000
vn 0.000000 0.000000 -1.000000
vn 0.000000 0.000000 -1.000000
vn 0.000000 0.000000 -1.000000
vn 0.000000 0.000000 -1.000000
vn 0.000000 -1.000000 0.000000
vn 0.000000 -1.000000 0.000000
vn 0.000000 -1.000000 0.000000
vn 0.000000 -1.000000 0.000000
vn 1.000000 0.000000 0.000000
vn 1.000000 0.000000 0.000000
vn 1.000000 0.000000 0.000000
vn 1.000000 0.000000 0.000000
vn -1.000000 0.000000 0.000000
vn -1.000000 0.000000 0.000000
vn -1.000000 0.000000 0.000000
vn -1.000000 0.000000 0.000000
vn 0.000000 0.625027 -0.780603
vn 0.000000 0.625027 -0.780603
vn 0.000000 0.625027 -0.780603
vn 0.000000 0.625027 -0.780603
vn -0.608906 0.793243 0.000000
vn -0.608906 0.793243 0.000000
vn -0.608906 0.793243 0.000000
vn -0.608906 0.793243 0.000000
vn 0.000000 0.625027 0.780603
vn 0.000000 0.625027 0.780603
vn 0.000000 0.625027 0.780603
vn 0.000000 0.625027 0.780603
vn 0.608906 0.793243 0.000000
vn 0.608906 0.793243 0.000000
vn 0.608906 0.793243 0.000000
vn 0.608906 0.793243 0.000000
s off
g pasted__pCube3 group4
usemtl phong5SG
f 69/111/217 70/112/218 72/114/219 71/113/220
f 77/125/221 78/126/222 79/127/223 80/128/224
f 73/115/225 74/116/226 76/118/227 75/117/228
f 75/117/229 76/118/230 70/120/231 69/119/232
f 70/112/233 76/121/234 74/122/235 72/114/236
f 75/123/237 69/111/238 71/113/239 73/124/240
f 71/113/241 72/114/242 78/126/243 77/125/244
f 72/114/245 74/116/246 79/127/247 78/126/248
f 74/116/249 73/115/250 80/128/251 79/127/252
f 73/115/253 71/113/254 77/125/255 80/128/256
g default
v -0.590996 0.510124 0.671646
v -0.487941 0.510124 0.671646
v -0.590996 0.575680 0.671646
v -0.487941 0.575680 0.671646
v -0.590996 0.575680 0.608306
v -0.487941 0.575680 0.608306
v -0.590996 0.510124 0.608306
v -0.487941 0.510124 0.608306
v -0.580205 0.567397 0.665013
v -0.498732 0.567397 0.665013
v -0.498732 0.567397 0.614938
v -0.580205 0.567397 0.614938
vt 0.375000 0.000000
vt 0.625000 0.000000
vt 0.375000 0.250000
vt 0.625000 0.250000
vt 0.375000 0.500000
vt 0.625000 0.500000
vt 0.375000 0.750000
vt 0.625000 0.750000
vt 0.375000 1.000000
vt 0.625000 1.000000
vt 0.875000 0.000000
vt 0.875000 0.250000
vt 0.125000 0.000000
vt 0.125000 0.250000
vt 0.375000 0.250000
vt 0.625000 0.250000
vt 0.625000 0.500000
vt 0.375000 0.500000
vn 0.000000 0.000000 1.000000
vn 0.000000 0.000000 1.000000
vn 0.000000 0.000000 1.000000
vn 0.000000 0.000000 1.000000
vn 0.000000 1.000000 0.000000
vn 0.000000 1.000000 0.000000
vn 0.000000 1.000000 0.000000
vn 0.000000 1.000000 0.000000
vn 0.000000 0.000000 -1.000000
vn 0.000000 0.000000 -1.000000
vn 0.000000 0.000000 -1.000000
vn 0.000000 0.000000 -1.000000
vn 0.000000 -1.000000 0.000000
vn 0.000000 -1.000000 0.000000
vn 0.000000 -1.000000 0.000000
vn 0.000000 -1.000000 0.000000
vn 1.000000 0.000000 0.000000
vn 1.000000 0.000000 0.000000
vn 1.000000 0.000000 0.000000
vn 1.000000 0.000000 0.000000
vn -1.000000 0.000000 0.000000
vn -1.000000 0.000000 0.000000
vn -1.000000 0.000000 0.000000
vn -1.000000 0.000000 0.000000
vn 0.000000 0.625027 -0.780603
vn 0.000000 0.625027 -0.780603
vn 0.000000 0.625027 -0.780603
vn 0.000000 0.625027 -0.780603
vn -0.608906 0.793243 0.000000
vn -0.608906 0.793243 0.000000
vn -0.608906 0.793243 0.000000
vn -0.608906 0.793243 0.000000
vn 0.000000 0.625027 0.780603
vn 0.000000 0.625027 0.780603
vn 0.000000 0.625027 0.780603
vn 0.000000 0.625027 0.780603
vn 0.608906 0.793243 0.000000
vn 0.608906 0.793243 0.000000
vn 0.608906 0.793243 0.000000
vn 0.608906 0.793243 0.000000
s off
g pasted__pCube3 group5
usemtl phong7SG
f 81/129/257 82/130/258 84/132/259 83/131/260
f 89/143/261 90/144/262 91/145/263 92/146/264
f 85/133/265 86/134/266 88/136/267 87/135/268
f 87/135/269 88/136/270 82/138/271 81/137/272
f 82/130/273 88/139/274 86/140/275 84/132/276
f 87/141/277 81/129/278 83/131/279 85/142/280
f 83/131/281 84/132/282 90/144/283 89/143/284
f 84/132/285 86/134/286 91/145/287 90/144/288
f 86/134/289 85/133/290 92/146/291 91/145/292
f 85/133/293 83/131/294 89/143/295 92/146/296
