# This file uses centimeters as units for non-parametric coordinates.

mtllib discoAnim.mtl
g default
v -0.364941 0.681122 0.032663
v 0.210758 0.681122 0.299717
v 0.154183 0.681122 -0.332380
v -0.154184 0.681122 0.332380
v 0.364941 0.681122 -0.032663
v -0.210758 0.681122 -0.299717
v -0.000000 0.681122 -0.000000
v -0.332380 0.681122 -0.154183
v -0.299717 0.681122 0.210758
v -0.077092 0.681122 0.166190
v -0.105379 0.681122 -0.149858
v -0.182471 0.681122 0.016332
v 0.032663 0.681122 0.364941
v 0.332380 0.681122 0.154183
v 0.182471 0.681122 -0.016332
v 0.105379 0.681122 0.149858
v 0.299717 0.681122 -0.210758
v -0.032663 0.681122 -0.364941
v 0.077092 0.681122 -0.166190
v -0.158068 0.681122 -0.224788
v -0.281149 0.681122 -0.234956
v -0.257425 0.681122 -0.068926
v -0.143925 0.681122 -0.066763
v -0.207747 0.681122 -0.146857
v -0.360960 0.681122 -0.062904
v -0.344052 0.681122 0.126004
v -0.241094 0.681122 0.113545
v -0.294877 0.681122 0.026392
v -0.234956 0.681122 0.281149
v -0.115638 0.681122 0.249285
v -0.129781 0.681122 0.091261
v -0.178366 0.681122 0.181415
v -0.038546 0.681122 0.083095
v -0.052689 0.681122 -0.074929
v -0.091235 0.681122 0.008166
v -0.062904 0.681122 0.360960
v 0.069021 0.681122 0.257400
v 0.014144 0.681122 0.158024
v -0.023308 0.681122 0.253342
v 0.126004 0.681122 0.344052
v 0.281149 0.681122 0.234956
v 0.218879 0.681122 0.152021
v 0.170295 0.681122 0.242175
v 0.360960 0.681122 0.062904
v 0.273706 0.681122 -0.024497
v 0.143925 0.681122 0.066763
v 0.246293 0.681122 0.063762
v 0.091235 0.681122 -0.008166
v 0.052689 0.681122 0.074929
v 0.344052 0.681122 -0.126004
v 0.188404 0.681122 -0.188474
v 0.129781 0.681122 -0.091261
v 0.231055 0.681122 -0.106486
v 0.234956 0.681122 -0.281149
v 0.062904 0.681122 -0.360960
v 0.022214 0.681122 -0.265566
v 0.124582 0.681122 -0.268567
v -0.126004 0.681122 -0.344052
v -0.014144 0.681122 -0.158024
v -0.067927 0.681122 -0.245177
v 0.038546 0.681122 -0.083095
v -0.143925 0.851035 -0.066763
v -0.105379 0.851035 -0.149858
v -0.158068 0.851035 -0.224788
v -0.207747 0.851035 -0.146857
v -0.210758 0.851035 -0.299717
v -0.281149 0.851035 -0.234956
v -0.332380 0.851035 -0.154183
v -0.257425 0.851035 -0.068926
v -0.182471 0.851035 0.016332
v -0.360960 0.851035 -0.062904
v -0.294877 0.851035 0.026392
v -0.364941 0.851035 0.032663
v -0.344052 0.851035 0.126004
v -0.299717 0.851035 0.210758
v -0.241094 0.851035 0.113545
v -0.234956 0.851035 0.281149
v -0.178366 0.851035 0.181415
v -0.154184 0.851035 0.332380
v -0.115638 0.851035 0.249285
v -0.077092 0.851035 0.166190
v -0.129781 0.851035 0.091261
v -0.038546 0.851035 0.083095
v -0.091235 0.851035 0.008166
v -0.000000 0.851035 -0.000000
v -0.052689 0.851035 -0.074929
v 0.014144 0.851035 0.158024
v -0.023308 0.851035 0.253342
v -0.062904 0.851035 0.360960
v 0.032663 0.851035 0.364941
v 0.069021 0.851035 0.257400
v 0.105379 0.851035 0.149858
v 0.126004 0.851035 0.344052
v 0.170295 0.851035 0.242175
v 0.210758 0.851035 0.299717
v 0.281149 0.851035 0.234956
v 0.332380 0.851035 0.154183
v 0.218879 0.851035 0.152021
v 0.360960 0.851035 0.062904
v 0.246293 0.851035 0.063762
v 0.364941 0.851035 -0.032663
v 0.273706 0.851035 -0.024497
v 0.182471 0.851035 -0.016332
v 0.143925 0.851035 0.066763
v 0.091235 0.851035 -0.008166
v 0.052689 0.851035 0.074929
v 0.129781 0.851035 -0.091261
v 0.231055 0.851035 -0.106486
v 0.344052 0.851035 -0.126004
v 0.299717 0.851035 -0.210758
v 0.188404 0.851035 -0.188474
v 0.077092 0.851035 -0.166190
v 0.234956 0.851035 -0.281149
v 0.124582 0.851035 -0.268567
v 0.154183 0.851035 -0.332380
v 0.062904 0.851035 -0.360960
v -0.032663 0.851035 -0.364941
v 0.022214 0.851035 -0.265566
v -0.126004 0.851035 -0.344052
v -0.067927 0.851035 -0.245177
v -0.014144 0.851035 -0.158024
v 0.038546 0.851035 -0.083095
vt 0.172216 1.000000
vt 0.086617 1.000000
vt 0.500000 1.000000
vt 0.500000 0.000000
vt 0.086617 1.000000
vt 0.142624 1.000000
vt 0.086617 1.000000
vt 0.129416 1.000000
vt 0.250000 0.066987
vt 0.172216 1.000000
vt 0.200452 1.000000
vt 0.257814 1.000000
vt 0.750000 0.066987
vt 0.215015 1.000000
vt 0.257814 1.000000
vt 0.257814 1.000000
vt 0.750000 0.933013
vt 0.250000 0.933013
vt 0.300613 1.000000
vt 0.343412 1.000000
vt 0.315176 1.000000
vt 0.386212 1.000000
vt 0.373004 1.000000
vt 0.429011 1.000000
vt 0.429011 1.000000
vt 0.429011 1.000000
vt 0.343412 1.000000
vt 0.429011 1.000000
vt 0.370591 0.017037
vt 0.257814 1.000000
vt 0.919316 1.000000
vt 0.086617 1.000000
vt 0.514609 1.000000
vt 0.485018 1.000000
vt 0.471810 1.000000
vt 0.629410 0.017037
vt 0.514609 1.000000
vt 0.542846 1.000000
vt 0.600208 1.000000
vt 0.557409 1.000000
vt 0.600208 1.000000
vt 0.600208 1.000000
vt 0.643007 1.000000
vt 0.685806 1.000000
vt 0.657570 1.000000
vt 0.728606 1.000000
vt 0.715398 1.000000
vt 0.771405 1.000000
vt 0.771405 1.000000
vt 0.771405 1.000000
vt 0.685806 1.000000
vt 0.771405 1.000000
vt 0.600208 1.000000
vt 0.629409 0.982963
vt 0.370590 0.982963
vt 0.857003 1.000000
vt 0.827412 1.000000
vt 0.814204 1.000000
vt 0.857003 1.000000
vt 0.885240 1.000000
vt 0.899803 1.000000
vt 0.942602 1.000000
vt 0.942602 1.000000
vt 0.001019 1.000000
vt 0.043818 1.000000
vt 0.030610 1.000000
vt 0.001019 1.000000
vt 0.172216 0.000000
vt 0.086617 0.000000
vt 0.086617 0.000000
vt 0.142624 0.000000
vt 0.086617 0.000000
vt 0.129416 0.000000
vt 0.172216 0.000000
vt 0.200452 0.000000
vt 0.257814 0.000000
vt 0.215015 0.000000
vt 0.257814 0.000000
vt 0.257814 0.000000
vt 0.300613 0.000000
vt 0.343412 0.000000
vt 0.315176 0.000000
vt 0.386212 0.000000
vt 0.373004 0.000000
vt 0.429011 0.000000
vt 0.429011 0.000000
vt 0.429011 0.000000
vt 0.343412 0.000000
vt 0.429011 0.000000
vt 0.257814 0.000000
vt 0.919316 0.000000
vt 0.086617 0.000000
vt 0.514609 0.000000
vt 0.485018 0.000000
vt 0.471810 0.000000
vt 0.514609 0.000000
vt 0.542846 0.000000
vt 0.600208 0.000000
vt 0.557409 0.000000
vt 0.600208 0.000000
vt 0.600208 0.000000
vt 0.643007 0.000000
vt 0.685806 0.000000
vt 0.657570 0.000000
vt 0.728606 0.000000
vt 0.715398 0.000000
vt 0.771405 0.000000
vt 0.771405 0.000000
vt 0.771405 0.000000
vt 0.685806 0.000000
vt 0.771405 0.000000
vt 0.600208 0.000000
vt 0.857003 0.000000
vt 0.827412 0.000000
vt 0.814204 0.000000
vt 0.857003 0.000000
vt 0.885240 0.000000
vt 0.899803 0.000000
vt 0.942602 0.000000
vt 0.942602 0.000000
vt 0.001019 0.000000
vt 0.250000 0.066987
vt 0.370591 0.017037
vt 0.500000 0.000000
vt 0.629410 0.017037
vt 0.750000 0.066987
vt 0.043818 0.000000
vt 0.030610 0.000000
vt 0.001019 0.000000
vt 0.250000 0.933013
vt 0.370590 0.982963
vt 0.500000 1.000000
vt 0.750000 0.933013
vt 0.629409 0.982963
vt 0.985401 1.000000
vt 1.028200 1.000000
vt 1.070999 1.000000
vt 0.999964 1.000000
vt 1.057792 1.000000
vt 1.113799 1.000000
vt 1.113799 1.000000
vt 1.946497 1.000000
vt 1.798586 1.000000
vt 0.942602 1.000000
vt 1.028200 1.000000
vt 0.942602 1.000000
vt 0.985401 0.000000
vt 1.028200 0.000000
vt 1.070999 0.000000
vt 0.999964 0.000000
vt 1.057792 0.000000
vt 1.113799 0.000000
vt 1.113799 0.000000
vt 1.946497 0.000000
vt 1.798586 0.000000
vt 0.942602 0.000000
vt 1.028200 0.000000
vt 0.942602 0.000000
vn -0.000000 1.000000 0.000000
vn 0.000000 1.000000 -0.000000
vn 0.000000 1.000000 -0.000000
vn -0.000000 1.000000 0.000000
vn -0.000000 1.000000 0.000000
vn -0.000000 1.000000 0.000000
vn 0.000000 1.000000 -0.000000
vn -0.000000 1.000000 0.000000
vn 0.000000 1.000000 -0.000000
vn 0.000000 1.000000 -0.000000
vn 0.000000 1.000000 -0.000000
vn 0.000000 1.000000 -0.000000
vn 0.000000 1.000000 -0.000000
vn 0.000000 1.000000 -0.000000
vn 0.000000 1.000000 -0.000000
vn -0.000000 1.000000 0.000000
vn -0.000000 1.000000 0.000000
vn -0.000000 1.000000 0.000000
vn -0.000000 1.000000 0.000000
vn -0.000000 1.000000 0.000000
vn 0.000000 1.000000 -0.000000
vn 0.000000 1.000000 -0.000000
vn 0.000000 1.000000 -0.000000
vn 0.000000 1.000000 -0.000000
vn -0.000000 1.000000 0.000000
vn -0.000000 1.000000 0.000000
vn -0.000000 1.000000 0.000000
vn -0.000000 1.000000 0.000000
vn 0.000000 1.000000 -0.000000
vn -0.000000 1.000000 0.000000
vn -0.000000 1.000000 0.000000
vn -0.000000 1.000000 0.000000
vn 0.000000 1.000000 -0.000000
vn 0.000000 1.000000 -0.000000
vn 0.000000 1.000000 -0.000000
vn -0.000000 1.000000 0.000000
vn -0.000000 1.000000 0.000000
vn -0.000000 1.000000 0.000000
vn -0.000000 1.000000 0.000000
vn 0.000000 1.000000 0.000000
vn -0.000000 1.000000 0.000000
vn 0.000000 1.000000 -0.000000
vn -0.000000 1.000000 0.000000
vn 0.000000 1.000000 -0.000000
vn 0.000000 1.000000 -0.000000
vn 0.000000 1.000000 -0.000000
vn -0.000000 1.000000 0.000000
vn 0.000000 1.000000 0.000000
vn 0.000000 1.000000 0.000000
vn 0.000000 1.000000 -0.000000
vn -0.000000 1.000000 0.000000
vn 0.000000 1.000000 -0.000000
vn -0.000000 1.000000 0.000000
vn 0.000000 1.000000 -0.000000
vn 0.000000 1.000000 -0.000000
vn 0.000000 1.000000 0.000000
vn -0.000000 1.000000 0.000000
vn 0.000000 1.000000 0.000000
vn 0.000000 1.000000 -0.000000
vn -0.000000 1.000000 0.000000
vn -0.000000 1.000000 0.000000
vn 0.000000 1.000000 0.000000
vn 0.000000 1.000000 0.000000
vn 0.000000 1.000000 0.000000
vn 0.000000 1.000000 0.000000
vn 0.000000 1.000000 0.000000
vn 0.000000 1.000000 0.000000
vn 0.000000 1.000000 0.000000
vn 0.000000 1.000000 0.000000
vn 0.000000 1.000000 0.000000
vn 0.000000 1.000000 0.000000
vn 0.000000 1.000000 0.000000
vn 0.000000 1.000000 0.000000
vn 0.000000 1.000000 0.000000
vn 0.000000 1.000000 0.000000
vn 0.000000 1.000000 0.000000
vn 0.000000 1.000000 0.000000
vn 0.000000 1.000000 0.000000
vn 0.000000 1.000000 0.000000
vn 0.000000 1.000000 0.000000
vn 0.000000 1.000000 0.000000
vn 0.000000 1.000000 0.000000
vn 0.000000 1.000000 0.000000
vn 0.000000 1.000000 0.000000
vn 0.000000 1.000000 0.000000
vn 0.000000 1.000000 0.000000
vn 0.000000 1.000000 0.000000
vn 0.000000 1.000000 0.000000
vn 0.000000 1.000000 0.000000
vn 0.000000 1.000000 0.000000
vn 0.000000 1.000000 0.000000
vn 0.000000 1.000000 0.000000
vn 0.000000 1.000000 0.000000
vn 0.000000 1.000000 0.000000
vn 0.000000 1.000000 0.000000
vn 0.000000 1.000000 0.000000
vn 0.000000 1.000000 0.000000
vn 0.000000 1.000000 0.000000
vn 0.000000 1.000000 0.000000
vn 0.000000 1.000000 0.000000
vn 0.000000 1.000000 0.000000
vn 0.000000 1.000000 0.000000
vn 0.000000 1.000000 0.000000
vn 0.000000 1.000000 0.000000
vn 0.000000 1.000000 0.000000
vn 0.000000 1.000000 0.000000
vn 0.000000 1.000000 0.000000
vn 0.000000 1.000000 0.000000
vn 0.000000 1.000000 0.000000
vn 0.000000 1.000000 0.000000
vn 0.000000 1.000000 0.000000
vn 0.000000 1.000000 0.000000
vn 0.000000 1.000000 0.000000
vn 0.000000 1.000000 0.000000
vn 0.000000 1.000000 0.000000
vn 0.000000 1.000000 0.000000
vn 0.000000 1.000000 0.000000
vn 0.000000 1.000000 0.000000
vn 0.000000 1.000000 0.000000
vn 0.000000 1.000000 0.000000
vn 0.000000 1.000000 0.000000
vn 0.000000 1.000000 0.000000
vn -0.677062 0.000000 -0.735926
vn -0.677062 0.000000 -0.735926
vn -0.677062 0.000000 -0.735926
vn -0.677062 0.000000 -0.735926
vn -0.844464 0.000000 -0.535613
vn -0.844464 0.000000 -0.535613
vn -0.844464 0.000000 -0.535613
vn -0.844464 0.000000 -0.535613
vn -0.954316 0.000000 -0.298799
vn -0.954316 0.000000 -0.298799
vn -0.954316 0.000000 -0.298799
vn -0.954316 0.000000 -0.298799
vn -0.999133 0.000000 -0.041623
vn -0.999133 0.000000 -0.041623
vn -0.999133 0.000000 -0.041623
vn -0.999133 0.000000 -0.041623
vn -0.975861 0.000000 0.218390
vn -0.975861 0.000000 0.218390
vn -0.975861 0.000000 0.218390
vn -0.975861 0.000000 0.218390
vn -0.886087 0.000000 0.463520
vn -0.886087 0.000000 0.463520
vn -0.886087 0.000000 0.463520
vn -0.886087 0.000000 0.463520
vn -0.735926 0.000000 0.677062
vn -0.735926 0.000000 0.677062
vn -0.735926 0.000000 0.677062
vn -0.735926 0.000000 0.677062
vn -0.535613 0.000000 0.844463
vn -0.535613 0.000000 0.844463
vn -0.535613 0.000000 0.844463
vn -0.535613 0.000000 0.844463
vn -0.298800 0.000000 0.954316
vn -0.298800 0.000000 0.954316
vn -0.298800 0.000000 0.954316
vn -0.298800 0.000000 0.954316
vn -0.041623 0.000000 0.999133
vn -0.041623 0.000000 0.999133
vn -0.041623 0.000000 0.999133
vn -0.041623 0.000000 0.999133
vn 0.218390 0.000000 0.975862
vn 0.218390 0.000000 0.975862
vn 0.218390 0.000000 0.975862
vn 0.218390 0.000000 0.975862
vn 0.463520 0.000000 0.886086
vn 0.463520 0.000000 0.886086
vn 0.463520 0.000000 0.886086
vn 0.463520 0.000000 0.886086
vn 0.677062 0.000000 0.735926
vn 0.677062 0.000000 0.735926
vn 0.677062 0.000000 0.735926
vn 0.677062 0.000000 0.735926
vn 0.844464 0.000000 0.535613
vn 0.844464 0.000000 0.535613
vn 0.844464 0.000000 0.535613
vn 0.844464 0.000000 0.535613
vn 0.954316 0.000000 0.298800
vn 0.954316 0.000000 0.298800
vn 0.954316 0.000000 0.298800
vn 0.954316 0.000000 0.298800
vn 0.999133 0.000000 0.041622
vn 0.999133 0.000000 0.041622
vn 0.999133 0.000000 0.041622
vn 0.999133 0.000000 0.041622
vn 0.975862 0.000000 -0.218390
vn 0.975862 0.000000 -0.218390
vn 0.975862 0.000000 -0.218390
vn 0.975862 0.000000 -0.218390
vn 0.886086 0.000000 -0.463520
vn 0.886086 0.000000 -0.463520
vn 0.886086 0.000000 -0.463520
vn 0.886086 0.000000 -0.463520
vn 0.735926 0.000000 -0.677062
vn 0.735926 0.000000 -0.677062
vn 0.735926 0.000000 -0.677062
vn 0.735926 0.000000 -0.677062
vn 0.535613 0.000000 -0.844463
vn 0.535613 0.000000 -0.844463
vn 0.535613 0.000000 -0.844463
vn 0.535613 0.000000 -0.844463
vn 0.298800 0.000000 -0.954316
vn 0.298800 0.000000 -0.954316
vn 0.298800 0.000000 -0.954316
vn 0.298800 0.000000 -0.954316
vn 0.041623 0.000000 -0.999133
vn 0.041623 0.000000 -0.999133
vn 0.041623 0.000000 -0.999133
vn 0.041623 0.000000 -0.999133
vn -0.218390 0.000000 -0.975862
vn -0.218390 0.000000 -0.975862
vn -0.218390 0.000000 -0.975862
vn -0.218390 0.000000 -0.975862
vn -0.463520 0.000000 -0.886086
vn -0.463520 0.000000 -0.886086
vn -0.463520 0.000000 -0.886086
vn -0.463520 0.000000 -0.886086
s 1
g pDisc2
usemtl phong2SG
f 62/1/1 63/2/2 64/5/3 65/6/4
f 64/5/3 66/7/5 67/8/6 65/6/4
f 67/8/6 68/10/7 69/11/8 65/6/4
f 69/11/8 70/12/9 62/1/1 65/6/4
f 69/11/8 68/10/7 71/14/10 72/15/11
f 71/14/10 73/16/12 74/19/13 72/15/11
f 74/19/13 75/20/14 76/21/15 72/15/11
f 76/21/15 70/12/9 69/11/8 72/15/11
f 76/21/15 75/20/14 77/22/16 78/23/17
f 77/22/16 79/24/18 80/25/19 78/23/17
f 80/25/19 81/26/20 82/27/21 78/23/17
f 82/27/21 70/12/9 76/21/15 78/23/17
f 82/27/21 81/26/20 83/28/22 84/30/23
f 83/28/22 85/31/24 86/32/25 84/30/23
f 86/32/25 63/2/2 62/1/1 84/30/23
f 62/1/1 70/12/9 82/27/21 84/30/23
f 87/33/26 81/26/20 80/25/19 88/34/27
f 80/25/19 79/24/18 89/35/28 88/34/27
f 89/35/28 90/37/29 91/38/30 88/34/27
f 91/38/30 92/39/31 87/33/26 88/34/27
f 91/38/30 90/37/29 93/40/32 94/41/33
f 93/40/32 95/42/34 96/43/35 94/41/33
f 96/43/35 97/44/36 98/45/37 94/41/33
f 98/45/37 92/39/31 91/38/30 94/41/33
f 98/45/37 97/44/36 99/46/38 100/47/39
f 99/46/38 101/48/40 102/49/41 100/47/39
f 102/49/41 103/50/42 104/51/43 100/47/39
f 104/51/43 92/39/31 98/45/37 100/47/39
f 104/51/43 103/50/42 105/52/44 106/53/45
f 105/52/44 85/31/24 83/28/22 106/53/45
f 83/28/22 81/26/20 87/33/26 106/53/45
f 87/33/26 92/39/31 104/51/43 106/53/45
f 107/56/46 103/50/42 102/49/41 108/57/47
f 102/49/41 101/48/40 109/58/48 108/57/47
f 109/58/48 110/59/49 111/60/50 108/57/47
f 111/60/50 112/144/51 107/56/46 108/57/47
f 111/60/50 110/59/49 113/61/52 114/62/53
f 113/61/52 115/63/54 116/135/55 114/62/53
f 116/135/55 117/136/56 118/138/57 114/62/53
f 118/138/57 112/144/51 111/60/50 114/62/53
f 118/138/57 117/136/56 119/137/58 120/139/59
f 119/65/58 66/7/5 64/5/3 120/66/59
f 64/5/3 63/2/2 121/67/60 120/66/59
f 121/145/60 112/144/51 118/138/57 120/139/59
f 121/145/60 63/141/2 86/140/25 122/146/61
f 86/140/25 85/142/24 105/143/44 122/146/61
f 105/52/44 103/50/42 107/56/46 122/146/61
f 107/56/46 112/144/51 121/145/60 122/146/61
s 2
f 23/68/62 11/69/63 20/70/64 24/71/65
f 20/70/64 6/72/66 21/73/67 24/71/65
f 21/73/67 8/74/68 22/75/69 24/71/65
f 22/75/69 12/76/70 23/68/62 24/71/65
f 22/75/69 8/74/68 25/77/71 28/78/72
f 25/77/71 1/79/73 26/80/74 28/78/72
f 26/80/74 9/81/75 27/82/76 28/78/72
f 27/82/76 12/76/70 22/75/69 28/78/72
f 27/82/76 9/81/75 29/83/77 32/84/78
f 29/83/77 4/85/79 30/86/80 32/84/78
f 30/86/80 10/87/81 31/88/82 32/84/78
f 31/88/82 12/76/70 27/82/76 32/84/78
f 31/88/82 10/87/81 33/89/83 35/90/84
f 33/89/83 7/91/85 34/92/86 35/90/84
f 34/92/86 11/69/63 23/68/62 35/90/84
f 23/68/62 12/76/70 31/88/82 35/90/84
f 38/93/87 10/87/81 30/86/80 39/94/88
f 30/86/80 4/85/79 36/95/89 39/94/88
f 36/95/89 13/96/90 37/97/91 39/94/88
f 37/97/91 16/98/92 38/93/87 39/94/88
f 37/97/91 13/96/90 40/99/93 43/100/94
f 40/99/93 2/101/95 41/102/96 43/100/94
f 41/102/96 14/103/97 42/104/98 43/100/94
f 42/104/98 16/98/92 37/97/91 43/100/94
f 42/104/98 14/103/97 44/105/99 47/106/100
f 44/105/99 5/107/101 45/108/102 47/106/100
f 45/108/102 15/109/103 46/110/104 47/106/100
f 46/110/104 16/98/92 42/104/98 47/106/100
f 46/110/104 15/109/103 48/111/105 49/112/106
f 48/111/105 7/91/85 33/89/83 49/112/106
f 33/89/83 10/87/81 38/93/87 49/112/106
f 38/93/87 16/98/92 46/110/104 49/112/106
f 52/113/107 15/109/103 45/108/102 53/114/108
f 45/108/102 5/107/101 50/115/109 53/114/108
f 50/115/109 17/116/110 51/117/111 53/114/108
f 51/117/111 19/156/112 52/113/107 53/114/108
f 51/117/111 17/116/110 54/118/113 57/119/114
f 54/118/113 3/120/115 55/147/116 57/119/114
f 55/147/116 18/148/117 56/150/118 57/119/114
f 56/150/118 19/156/112 51/117/111 57/119/114
f 56/150/118 18/148/117 58/149/119 60/151/120
f 58/127/119 6/72/66 20/70/64 60/128/120
f 20/70/64 11/69/63 59/129/121 60/128/120
f 59/157/121 19/156/112 56/150/118 60/151/120
f 59/157/121 11/153/63 34/152/86 61/158/122
f 34/152/86 7/154/85 48/155/105 61/158/122
f 48/111/105 15/109/103 52/113/107 61/158/122
f 52/113/107 19/156/112 59/157/121 61/158/122
s off
f 6/72/123 21/73/124 67/8/125 66/7/126
f 21/73/127 8/74/128 68/10/129 67/8/130
f 8/74/131 25/77/132 71/14/133 68/10/134
f 25/77/135 1/79/136 73/16/137 71/14/138
f 1/79/139 26/80/140 74/19/141 73/16/142
f 26/80/143 9/81/144 75/20/145 74/19/146
f 9/9/147 29/29/148 77/123/149 75/122/150
f 29/29/151 4/4/152 79/124/153 77/123/154
f 4/4/155 36/36/156 89/125/157 79/124/158
f 36/36/159 13/13/160 90/126/161 89/125/162
f 13/96/163 40/99/164 93/40/165 90/37/166
f 40/99/167 2/101/168 95/42/169 93/40/170
f 2/101/171 41/102/172 96/43/173 95/42/174
f 41/102/175 14/103/176 97/44/177 96/43/178
f 14/103/179 44/105/180 99/46/181 97/44/182
f 44/105/183 5/107/184 101/48/185 99/46/186
f 5/107/187 50/115/188 109/58/189 101/48/190
f 50/115/191 17/116/192 110/59/193 109/58/194
f 17/17/195 54/54/196 113/134/197 110/133/198
f 54/54/199 3/3/200 115/132/201 113/134/202
f 3/3/203 55/55/204 116/131/205 115/132/206
f 55/55/207 18/18/208 117/130/209 116/131/210
f 18/121/211 58/127/212 119/65/213 117/64/214
f 58/127/215 6/72/216 66/7/217 119/65/218
