# This file uses centimeters as units for non-parametric coordinates.

mtllib Monitor.mtl
g default
v -0.672760 0.148076 0.074198
v 0.537138 0.148076 0.074198
v -0.672760 0.764243 0.074198
v 0.537138 0.764243 0.074198
v -0.672760 0.764243 -0.027738
v 0.537138 0.764243 -0.027738
v -0.672760 0.148076 -0.027738
v 0.537138 0.148076 -0.027738
v -0.595566 0.187389 0.048595
v 0.459944 0.187389 0.048595
v 0.459944 0.724930 0.048595
v -0.595566 0.724930 0.048595
v -0.237450 0.015683 -0.227821
v -0.311595 0.015683 -0.153675
v -0.311595 0.085346 -0.153675
v -0.237450 0.085346 -0.227821
v -0.040454 0.015683 0.043320
v -0.144021 0.015683 -0.275425
v -0.359199 0.015683 -0.060246
v -0.144021 0.085346 -0.275425
v -0.359199 0.085346 -0.060246
v -0.040454 0.015683 -0.291828
v -0.375603 0.015683 0.043320
v -0.040454 0.085346 0.043320
v 0.063112 0.015683 -0.275425
v -0.359199 0.015683 0.146887
v -0.040454 0.085346 -0.291828
v -0.375603 0.085346 0.043320
v 0.063112 0.085346 -0.275425
v -0.359199 0.085346 0.146887
v 0.156541 0.015683 -0.227821
v 0.156541 0.085346 -0.227821
v -0.282370 0.015683 0.246229
v -0.168153 0.015683 0.246229
v 0.230687 0.015683 -0.153675
v -0.097563 0.015683 0.246229
v -0.168153 0.085346 0.246229
v -0.282370 0.085346 0.246229
v 0.230687 0.085346 -0.153675
v 0.278291 0.015683 -0.060246
v -0.040454 0.015683 0.246229
v -0.097563 0.085346 0.246229
v 0.016654 0.015683 0.246229
v 0.278291 0.085346 -0.060246
v -0.040454 0.085346 0.246229
v 0.087244 0.015683 0.246229
v 0.294694 0.015683 0.043320
v 0.016654 0.085346 0.246229
v 0.201461 0.015683 0.246229
v 0.087244 0.085346 0.246229
v 0.278291 0.015683 0.146887
v 0.294694 0.085346 0.043320
v 0.201461 0.085346 0.246229
v 0.278291 0.085346 0.146887
v -0.298390 0.085346 0.246229
v -0.330756 0.085346 0.223700
v -0.325684 0.085346 0.232840
v -0.318108 0.085346 0.240042
v -0.308723 0.085346 0.244646
v -0.298390 0.015683 0.246229
v -0.308723 0.015683 0.244646
v -0.318108 0.015683 0.240042
v -0.325684 0.015683 0.232840
v -0.330756 0.015683 0.223700
v 0.244775 0.015683 0.232840
v 0.237199 0.015683 0.240042
v 0.227814 0.015683 0.244646
v 0.217481 0.015683 0.246229
v 0.249848 0.015683 0.223700
v 0.227814 0.085346 0.244646
v 0.237199 0.085346 0.240042
v 0.244775 0.085346 0.232840
v 0.249848 0.085346 0.223700
v 0.217481 0.085346 0.246229
v -0.602750 0.180646 0.055312
v 0.460533 0.180646 0.055312
v -0.602750 0.732193 0.055312
v 0.460533 0.732193 0.055312
v -0.602750 0.732193 0.044696
v 0.460533 0.732193 0.044696
v -0.602750 0.180646 0.044696
v 0.460533 0.180646 0.044696
v -0.168394 0.426628 -0.026273
v 0.088853 0.426628 -0.026273
v -0.168394 0.073358 -0.199519
v 0.088853 0.073358 -0.199519
v -0.168394 0.355769 -0.199519
v -0.168394 0.476786 -0.021460
v -0.168394 0.460573 -0.139011
v -0.168394 0.416278 -0.183306
v 0.088853 0.355769 -0.199519
v 0.088853 0.416278 -0.183306
v 0.088853 0.460573 -0.139011
v 0.088853 0.476786 -0.021460
v -0.168394 0.073358 -0.069266
v 0.088853 0.073358 -0.069266
v -0.169906 0.241680 -0.109397
v -0.169906 0.249545 -0.109346
v -0.169906 0.257411 -0.109294
v -0.169906 0.265277 -0.109242
v -0.169906 0.273142 -0.109191
v -0.169906 0.233814 -0.109449
v 0.091469 0.265277 -0.109242
v 0.091469 0.257411 -0.109294
v 0.091469 0.249546 -0.109346
v 0.091469 0.241680 -0.109397
v 0.091469 0.233814 -0.109449
v 0.091469 0.273142 -0.109191
vt 0.375000 0.000000
vt 0.625000 0.000000
vt 0.375000 0.250000
vt 0.625000 0.250000
vt 0.375000 0.500000
vt 0.625000 0.500000
vt 0.375000 0.750000
vt 0.625000 0.750000
vt 0.375000 1.000000
vt 0.625000 1.000000
vt 0.875000 0.000000
vt 0.875000 0.250000
vt 0.125000 0.000000
vt 0.125000 0.250000
vt 0.375000 0.000000
vt 0.625000 0.000000
vt 0.625000 0.250000
vt 0.375000 0.250000
vt 0.450000 0.312500
vt 0.462500 0.312500
vt 0.462500 0.687500
vt 0.450000 0.687500
vt 0.373591 0.064409
vt 0.408159 0.029841
vt 0.500000 0.156250
vt 0.451716 0.007647
vt 0.351397 0.107966
vt 0.437500 0.312500
vt 0.437500 0.687500
vt 0.475000 0.312500
vt 0.475000 0.687500
vt 0.500000 -0.000000
vt 0.343750 0.156250
vt 0.408159 0.970159
vt 0.373591 0.935591
vt 0.500000 0.843750
vt 0.451716 0.992353
vt 0.351397 0.892034
vt 0.548284 0.007647
vt 0.351397 0.204534
vt 0.500000 1.000000
vt 0.343750 0.843750
vt 0.425000 0.312500
vt 0.425000 0.687500
vt 0.487500 0.312500
vt 0.487500 0.687500
vt 0.548284 0.992353
vt 0.351397 0.795466
vt 0.591842 0.029841
vt 0.591841 0.970159
vt 0.387216 0.238192
vt 0.440466 0.238192
vt 0.626409 0.064408
vt 0.412500 0.312500
vt 0.412500 0.687500
vt 0.500000 0.312500
vt 0.500000 0.687500
vt 0.473375 0.238192
vt 0.440466 0.761808
vt 0.387216 0.761808
vt 0.626409 0.935591
vt 0.648603 0.107966
vt 0.500000 0.238192
vt 0.473375 0.761808
vt 0.526625 0.238192
vt 0.648603 0.892034
vt 0.500000 0.761808
vt 0.559534 0.238192
vt 0.656250 0.156250
vt 0.526625 0.761808
vt 0.507468 0.312500
vt 0.507468 0.687500
vt 0.400000 0.312500
vt 0.400000 0.687500
vt 0.612784 0.238192
vt 0.559535 0.761808
vt 0.648603 0.204534
vt 0.656250 0.843750
vt 0.612784 0.761808
vt 0.648603 0.795466
vt 0.387500 0.312500
vt 0.387500 0.687500
vt 0.375000 0.312500
vt 0.375000 0.687500
vt 0.612500 0.312500
vt 0.625000 0.312500
vt 0.625000 0.687500
vt 0.612500 0.687500
vt 0.600000 0.312500
vt 0.600000 0.687500
vt 0.592531 0.687500
vt 0.592531 0.312500
vt 0.540350 0.509390
vt 0.513447 0.509390
vt 0.491683 0.509390
vt 0.469918 0.509390
vt 0.443016 0.509390
vt 0.399487 0.509390
vt 0.393382 0.509390
vt 0.393382 0.741311
vt 0.399487 0.741311
vt 0.443016 0.741311
vt 0.469918 0.741311
vt 0.491683 0.741311
vt 0.513448 0.741311
vt 0.540350 0.741311
vt 0.583879 0.741311
vt 0.589984 0.741311
vt 0.589984 0.509390
vt 0.583879 0.509390
vt 0.388804 0.509390
vt 0.388804 0.741311
vt 0.384226 0.509390
vt 0.384226 0.741311
vt 0.509659 0.687500
vt 0.508564 0.687500
vt 0.508564 0.312500
vt 0.509659 0.312500
vt 0.594562 0.741311
vt 0.594562 0.509390
vt 0.599140 0.741311
vt 0.599140 0.509390
vt 0.590341 0.312500
vt 0.591436 0.312500
vt 0.591436 0.687500
vt 0.590341 0.687500
vt 0.379747 0.761808
vt 0.364658 0.769441
vt 0.366602 0.765624
vt 0.368547 0.761808
vt 0.374147 0.761808
vt 0.379747 0.238192
vt 0.374147 0.238192
vt 0.368547 0.238192
vt 0.366602 0.234376
vt 0.364658 0.230559
vt 0.633398 0.234376
vt 0.631453 0.238192
vt 0.625853 0.238192
vt 0.620252 0.238192
vt 0.635342 0.230559
vt 0.625853 0.761808
vt 0.631453 0.761808
vt 0.633398 0.765624
vt 0.635342 0.769441
vt 0.620253 0.761808
vt -0.005061 -0.002404
vt 1.005061 -0.002404
vt 1.005061 1.001364
vt -0.005061 1.001364
vt 0.625000 0.500000
vt 0.375000 0.500000
vt 0.625000 0.750000
vt 0.375000 0.750000
vt 0.625000 1.000000
vt 0.375000 1.000000
vt 0.886009 0.019204
vt 0.886009 0.259418
vt 0.125000 0.000000
vt 0.125000 0.250000
vt 0.375000 0.052807
vt 0.625000 0.052807
vt 0.625000 0.250000
vt 0.375000 0.250000
vt 0.625000 0.425007
vt 0.375000 0.425007
vt 0.375000 0.574992
vt 0.625000 0.574992
vt 0.625000 0.750000
vt 0.375000 0.750000
vt 0.625000 0.875012
vt 0.375000 0.875012
vt 0.208333 0.358331
vt 0.625000 0.524997
vt 0.291667 0.391669
vt 0.625000 0.475002
vt 0.662493 0.028436
vt 0.337508 0.028436
vt 0.250012 -0.000000
vt 0.749988 -0.000000
vt 0.367240 0.047934
vt 0.627739 0.047931
vt 0.359613 0.043061
vt 0.630256 0.043055
vt 0.352118 0.038187
vt 0.632547 0.038178
vt 0.344752 0.033312
vt 0.647541 0.033307
vt 0.199993 0.250000
vt 0.174995 0.225002
vt 0.149998 0.200005
vt 0.125000 0.175008
vt 0.125000 0.000000
vt 0.875000 0.000000
vt 0.875000 0.175008
vt 0.850003 0.200005
vt 0.825005 0.225002
vt 0.800008 0.250000
vn 0.000000 0.000000 1.000000
vn 0.000000 0.000000 1.000000
vn 0.000000 0.000000 1.000000
vn 0.000000 0.000000 1.000000
vn 0.000000 1.000000 0.000000
vn 0.000000 1.000000 0.000000
vn 0.000000 1.000000 0.000000
vn 0.000000 1.000000 0.000000
vn 0.000000 0.000000 -1.000000
vn 0.000000 0.000000 -1.000000
vn 0.000000 0.000000 -1.000000
vn 0.000000 0.000000 -1.000000
vn 0.000000 -1.000000 0.000000
vn 0.000000 -1.000000 0.000000
vn 0.000000 -1.000000 0.000000
vn 0.000000 -1.000000 0.000000
vn 1.000000 0.000000 0.000000
vn 1.000000 0.000000 0.000000
vn 1.000000 0.000000 0.000000
vn 1.000000 0.000000 0.000000
vn -1.000000 0.000000 0.000000
vn -1.000000 0.000000 0.000000
vn -1.000000 0.000000 0.000000
vn -1.000000 0.000000 0.000000
vn 0.000000 0.545723 0.837966
vn 0.000000 0.545723 0.837966
vn 0.000000 0.545723 0.837966
vn 0.000000 0.545723 0.837966
vn -0.314800 0.000000 0.949158
vn -0.314800 0.000000 0.949158
vn -0.314800 0.000000 0.949158
vn -0.314800 0.000000 0.949158
vn 0.000000 -0.545722 0.837966
vn 0.000000 -0.545722 0.837966
vn 0.000000 -0.545722 0.837966
vn 0.000000 -0.545722 0.837966
vn 0.314800 0.000000 0.949158
vn 0.314800 0.000000 0.949158
vn 0.314800 0.000000 0.949158
vn 0.314800 0.000000 0.949158
vn -0.587785 0.000000 -0.809017
vn -0.809017 0.000000 -0.587785
vn -0.809017 0.000000 -0.587785
vn -0.587785 0.000000 -0.809017
vn 0.000000 -1.000000 0.000000
vn 0.000000 -1.000000 0.000000
vn 0.000000 -1.000000 0.000000
vn 0.000000 -1.000000 0.000000
vn 0.000000 -1.000000 0.000000
vn -0.309017 0.000000 -0.951056
vn -0.309017 0.000000 -0.951056
vn -0.951057 0.000000 -0.309017
vn -0.951057 0.000000 -0.309017
vn 0.000000 -1.000000 0.000000
vn 0.000000 -1.000000 0.000000
vn 0.000000 1.000000 -0.000000
vn 0.000000 1.000000 -0.000000
vn 0.000000 1.000000 -0.000000
vn 0.000000 1.000000 0.000000
vn 0.000000 1.000000 -0.000000
vn 0.000000 -1.000000 0.000000
vn 0.000000 -1.000000 0.000000
vn 0.000000 1.000000 0.000000
vn 0.000000 1.000000 0.000000
vn -0.000000 0.000000 -1.000000
vn -0.000000 0.000000 -1.000000
vn -1.000000 0.000000 0.000000
vn -1.000000 0.000000 0.000000
vn 0.000000 1.000000 0.000000
vn 0.000000 1.000000 0.000000
vn 0.000000 -1.000000 0.000000
vn 0.000000 1.000000 0.000000
vn 0.000000 -1.000000 0.000000
vn 0.000000 -1.000000 -0.000000
vn 0.000000 -1.000000 0.000000
vn 0.309017 0.000000 -0.951057
vn 0.309017 0.000000 -0.951057
vn -0.970456 0.000000 0.241277
vn -0.970456 0.000000 0.241277
vn 0.000000 -1.000000 0.000000
vn 0.000000 1.000000 0.000000
vn 0.000000 1.000000 0.000000
vn 0.000000 1.000000 0.000000
vn 0.000000 -1.000000 0.000000
vn 0.000000 -1.000000 0.000000
vn 0.000000 1.000000 -0.000000
vn 0.000000 -1.000000 -0.000000
vn 0.000000 1.000000 -0.000000
vn 0.000000 1.000000 0.000000
vn 0.000000 -1.000000 0.000000
vn 0.000000 -1.000000 -0.000000
vn 0.000000 1.000000 0.000000
vn -0.931677 0.000000 0.363286
vn -0.931678 0.000000 0.363286
vn 0.587785 0.000000 -0.809017
vn 0.587785 0.000000 -0.809017
vn 0.000000 -1.000000 0.000000
vn 0.000000 1.000000 -0.000000
vn 0.000000 -1.000000 0.000000
vn 0.000000 1.000000 -0.000000
vn 0.000000 1.000000 0.000000
vn 0.000000 1.000000 0.000000
vn 0.809017 0.000000 -0.587785
vn 0.809017 0.000000 -0.587785
vn 0.951057 0.000000 -0.309016
vn 0.951057 0.000000 -0.309016
vn 1.000000 0.000000 0.000001
vn 1.000000 0.000000 0.000001
vn 0.970456 0.000000 0.241277
vn 0.970456 0.000000 0.241277
vn 0.931678 0.000000 0.363286
vn 0.931678 0.000000 0.363286
vn 0.000000 0.000000 1.000000
vn 0.000000 0.000000 1.000000
vn 0.000000 0.000000 1.000000
vn 0.000000 0.000000 1.000000
vn 0.000000 0.000000 1.000000
vn 0.000000 0.000000 1.000000
vn -0.003008 0.000000 0.999995
vn -0.003008 0.000000 0.999995
vn 0.000000 0.000000 1.000000
vn 0.000000 0.000000 1.000000
vn 0.000000 0.000000 1.000000
vn 0.000000 0.000000 1.000000
vn 0.000000 0.000000 1.000000
vn 0.000000 0.000000 1.000000
vn 0.000000 0.000000 1.000000
vn 0.003008 0.000000 0.999995
vn 0.003008 0.000000 0.999995
vn 0.000000 0.000000 1.000000
vn -0.299378 0.000000 0.954135
vn -0.299378 0.000000 0.954135
vn -0.571294 0.000000 0.820746
vn -0.571294 0.000000 0.820746
vn -0.790805 0.000000 0.612069
vn -0.790805 0.000000 0.612069
vn 0.299378 0.000000 0.954135
vn 0.299378 0.000000 0.954135
vn 0.571294 0.000000 0.820746
vn 0.571294 0.000000 0.820746
vn 0.790805 0.000000 0.612069
vn 0.790805 0.000000 0.612069
vn 0.000000 1.000000 0.000000
vn 0.000000 1.000000 0.000000
vn 0.000000 1.000000 0.000000
vn 0.000000 1.000000 0.000000
vn 0.000000 1.000000 0.000000
vn 0.000000 -1.000000 0.000000
vn 0.000000 -1.000000 0.000000
vn 0.000000 -1.000000 0.000000
vn 0.000000 -1.000000 0.000000
vn 0.000000 -1.000000 0.000000
vn 0.000000 -1.000000 0.000000
vn 0.000000 -1.000000 0.000000
vn 0.000000 -1.000000 0.000000
vn 0.000000 -1.000000 0.000000
vn 0.000000 -1.000000 0.000000
vn 0.000000 1.000000 0.000000
vn 0.000000 1.000000 0.000000
vn 0.000000 1.000000 0.000000
vn 0.000000 1.000000 0.000000
vn 0.000000 1.000000 0.000000
vn 0.000000 0.000000 1.000000
vn 0.000000 0.000000 1.000000
vn 0.000000 0.000000 1.000000
vn 0.000000 0.000000 1.000000
vn 0.000000 1.000000 0.000000
vn 0.000000 1.000000 0.000000
vn 0.000000 1.000000 0.000000
vn 0.000000 1.000000 0.000000
vn 0.000000 0.000000 -1.000000
vn 0.000000 0.000000 -1.000000
vn 0.000000 0.000000 -1.000000
vn 0.000000 0.000000 -1.000000
vn 0.000000 -1.000000 0.000000
vn 0.000000 -1.000000 0.000000
vn 0.000000 -1.000000 0.000000
vn 0.000000 -1.000000 0.000000
vn 1.000000 0.000000 0.000000
vn 1.000000 0.000000 0.000000
vn 1.000000 0.000000 0.000000
vn 1.000000 0.000000 0.000000
vn -1.000000 0.000000 0.000000
vn -1.000000 0.000000 0.000000
vn -1.000000 0.000000 0.000000
vn -1.000000 0.000000 0.000000
vn 0.000000 -0.457063 0.889435
vn 0.000000 -0.456991 0.889471
vn 0.000000 -0.475306 0.879821
vn 0.000000 -0.475306 0.879821
vn 0.000000 -0.095526 0.995427
vn 0.000000 -0.095526 0.995427
vn 0.000000 0.957536 0.288313
vn 0.000000 0.957536 0.288313
vn 0.000000 0.047227 -0.998884
vn 0.000000 0.047227 -0.998884
vn 0.000000 0.000000 -1.000000
vn 0.000000 0.000000 -1.000000
vn 0.000000 -1.000000 0.000000
vn 0.000000 -1.000000 0.000000
vn 0.000000 -1.000000 0.000000
vn 0.000000 -1.000000 0.000000
vn 0.000000 0.258819 -0.965926
vn 0.000000 0.258819 -0.965926
vn 0.000000 0.707107 -0.707107
vn 0.000000 0.707107 -0.707107
vn 0.000000 0.707107 -0.707107
vn 0.000000 0.707107 -0.707107
vn 0.000000 0.990622 -0.136631
vn 0.000000 0.990622 -0.136631
vn -0.000000 0.231727 0.972781
vn -0.000000 0.231773 0.972770
vn -0.000000 0.242926 0.970045
vn -0.000000 0.242926 0.970045
vn 0.000000 -0.006561 0.999978
vn 0.000000 -0.006561 0.999978
vn 0.000000 -0.006557 0.999979
vn 0.000000 -0.006557 0.999979
vn 0.000000 -0.006557 0.999979
vn 0.000000 -0.006557 0.999978
vn 0.000000 -0.006561 0.999978
vn 0.000000 -0.006561 0.999978
vn -0.999979 0.000709 -0.006431
vn -0.999979 0.000709 -0.006431
vn -0.999979 0.000709 -0.006431
vn -0.999979 0.000709 -0.006431
vn -0.999979 0.000709 -0.006431
vn -0.999979 0.000709 -0.006431
vn -0.999979 0.000709 -0.006431
vn -0.999979 0.000709 -0.006431
vn -0.999979 0.000709 -0.006431
vn -0.999979 0.000709 -0.006431
vn -0.999979 0.000709 -0.006431
vn -0.999979 0.000709 -0.006431
vn -0.999979 0.000709 -0.006431
vn 0.999937 0.001226 -0.011129
vn 0.999937 0.001226 -0.011129
vn 0.999937 0.001226 -0.011129
vn 0.999937 0.001226 -0.011129
vn 0.999937 0.001226 -0.011129
vn 0.999937 0.001226 -0.011129
vn 0.999937 0.001226 -0.011129
vn 0.999937 0.001226 -0.011129
vn 0.999937 0.001226 -0.011129
vn 0.999937 0.001226 -0.011129
vn 0.999937 0.001226 -0.011129
vn 0.999937 0.001226 -0.011129
vn 0.999937 0.001226 -0.011129
s off
g pCube4
usemtl phong1SG
f 9/15/1 10/16/2 11/17/3 12/18/4
f 3/3/5 4/4/6 6/6/7 5/5/8
f 5/5/9 6/6/10 8/8/11 7/7/12
f 7/7/13 8/8/14 2/10/15 1/9/16
f 2/2/17 8/11/18 6/12/19 4/4/20
f 7/13/21 1/1/22 3/3/23 5/14/24
f 1/1/25 2/2/26 10/16/27 9/15/28
f 2/2/29 4/4/30 11/17/31 10/16/32
f 4/4/33 3/3/34 12/18/35 11/17/36
f 3/3/37 1/1/38 9/15/39 12/18/40
s 1
usemtl phong3SG
f 13/19/41 14/20/42 15/21/43 16/22/44
s 2
f 14/23/45 13/24/46 17/25/47
f 13/24/46 18/26/48 17/25/47
f 19/27/49 14/23/45 17/25/47
s 1
f 18/28/50 13/19/41 16/22/44 20/29/51
f 14/20/42 19/30/52 21/31/53 15/21/43
s 2
f 18/26/48 22/32/54 17/25/47
f 23/33/55 19/27/49 17/25/47
s 3
f 16/34/56 15/35/57 24/36/58
f 20/37/59 16/34/56 24/36/58
f 15/35/57 21/38/60 24/36/58
s 2
f 22/32/54 25/39/61 17/25/47
f 26/40/62 23/33/55 17/25/47
s 3
f 27/41/63 20/37/59 24/36/58
f 21/38/60 28/42/64 24/36/58
s 1
f 22/43/65 18/28/50 20/29/51 27/44/66
f 19/30/52 23/45/67 28/46/68 21/31/53
s 3
f 29/47/69 27/41/63 24/36/58
f 28/42/64 30/48/70 24/36/58
s 2
f 25/39/61 31/49/71 17/25/47
s 3
f 32/50/72 29/47/69 24/36/58
s 2
f 33/51/73 17/25/47 34/52/74
f 31/49/71 35/53/75 17/25/47
s 1
f 25/54/76 22/43/65 27/44/66 29/55/77
f 23/45/67 26/56/78 30/57/79 28/46/68
s 2
f 34/52/74 17/25/47 36/58/80
s 3
f 37/59/81 24/36/58 38/60/82
f 39/61/83 32/50/72 24/36/58
s 2
f 35/53/75 40/62/84 17/25/47
f 36/58/80 17/25/47 41/63/85
s 3
f 42/64/86 24/36/58 37/59/81
s 2
f 41/63/85 17/25/47 43/65/87
s 3
f 44/66/88 39/61/83 24/36/58
f 45/67/89 24/36/58 42/64/86
s 2
f 43/65/87 17/25/47 46/68/90
f 40/62/84 47/69/91 17/25/47
s 3
f 48/70/92 24/36/58 45/67/89
s 1
f 64/71/93 56/72/94 30/57/79 26/56/78
f 31/73/95 25/54/76 29/55/77 32/74/96
s 2
f 46/68/90 17/25/47 49/75/97
s 3
f 50/76/98 24/36/58 48/70/92
s 2
f 47/69/91 51/77/99 17/25/47
s 3
f 52/78/100 44/66/88 24/36/58
f 53/79/101 24/36/58 50/76/98
f 54/80/102 52/78/100 24/36/58
s 1
f 35/81/103 31/73/95 32/74/96 39/82/104
f 40/83/105 35/81/103 39/82/104 44/84/106
f 47/85/107 40/86/105 44/87/106 52/88/108
f 51/89/109 47/85/107 52/88/108 54/90/110
f 73/91/111 69/92/112 51/89/109 54/90/110
f 50/93/113 48/94/114 45/95/115 42/96/116 37/97/117 38/98/118 55/99/119 60/100/120 33/101/121 34/102/122 36/103/123 41/104/124 43/105/125 46/106/126 49/107/127 68/108/128 74/109/129 53/110/130
f 55/99/119 59/111/131 61/112/132 60/100/120
f 59/111/131 58/113/133 62/114/134 61/112/132
f 58/115/133 57/116/135 63/117/136 62/118/134
f 57/116/135 56/72/94 64/71/93 63/117/136
f 68/108/128 67/119/137 70/120/138 74/109/129
f 67/119/137 66/121/139 71/122/140 70/120/138
f 66/123/139 65/124/141 72/125/142 71/126/140
f 65/124/141 69/92/112 73/91/111 72/125/142
s 3
f 55/127/143 38/60/82 24/36/58 30/48/70 56/128/144 57/129/145 58/130/146 59/131/147
s 2
f 26/40/62 17/25/47 33/51/73 60/132/148 61/133/149 62/134/150 63/135/151 64/136/152
f 65/137/153 66/138/154 67/139/155 68/140/156 49/75/97 17/25/47 51/77/99 69/141/157
s 3
f 70/142/158 71/143/159 72/144/160 73/145/161 54/80/102 24/36/58 53/79/101 74/146/162
s off
usemtl phong4SG
f 75/147/163 76/148/164 78/149/165 77/150/166
f 77/150/167 78/149/168 80/151/169 79/152/170
f 79/152/171 80/151/172 82/153/173 81/154/174
f 81/154/175 82/153/176 76/155/177 75/156/178
f 76/148/179 82/157/180 80/158/181 78/149/182
f 81/159/183 75/147/184 77/150/185 79/160/186
s 6
usemtl phong2SG
f 101/161/187 108/162/188 84/163/189 83/164/190
s 7
f 83/164/191 84/163/192 94/165/193 88/166/194
s 8
f 87/167/195 91/168/196 86/169/197 85/170/198
s off
f 85/170/199 86/169/200 96/171/201 95/172/202
s 8
f 87/167/195 90/173/203 92/174/204 91/168/196
s off
f 90/173/205 89/175/206 93/176/207 92/174/208
s 7
f 89/175/209 88/166/194 94/165/193 93/176/210
s 6
f 107/177/211 102/178/212 95/179/213 96/180/214
f 101/161/187 100/181/215 103/182/216 108/162/188
f 100/181/215 99/183/217 104/184/218 103/182/216
f 99/183/217 98/185/219 105/186/220 104/184/218
f 98/185/219 97/187/221 106/188/222 105/186/220
f 97/187/221 102/178/212 107/177/211 106/188/222
s off
f 97/187/223 98/185/224 99/183/225 100/181/226 101/161/227 83/164/228 88/189/229 89/190/230 90/191/231 87/192/232 85/193/233 95/179/234 102/178/235
f 103/182/236 104/184/237 105/186/238 106/188/239 107/177/240 96/180/241 86/194/242 91/195/243 92/196/244 93/197/245 94/198/246 84/163/247 108/162/248
