# This file uses centimeters as units for non-parametric coordinates.

mtllib portalVerde.mtl
g default
v 3.241798 3.782172 -2.780564
v 3.241798 1.088372 -1.370511
v 3.241798 1.087990 1.396418
v 3.241798 3.594090 2.797497
v 3.241798 6.185165 1.264740
v 3.241798 6.105648 -1.282413
v 2.390339 3.782172 -2.780564
v 2.390339 1.088372 -1.370511
v 2.390339 1.087990 1.396418
v 2.390339 3.594090 2.797497
v 2.390339 6.185165 1.264740
v 2.390339 6.105648 -1.282413
v 3.241798 3.636523 0.011170
v 2.390339 3.636523 0.011170
vt 0.750000 0.000000
vt 1.000000 0.500000
vt 0.500000 0.500000
vt 0.250000 -0.000000
vt -0.000000 0.500000
vt 0.250000 1.000000
vt 1.006755 0.500000
vt 1.006755 0.000000
vt 0.006755 0.000000
vt 0.006755 0.500000
vt 1.006755 -0.000000
vt 0.006755 -0.000000
vt 1.006755 0.500000
vt 0.006755 0.500000
vt 1.006755 1.000000
vt 0.006755 1.000000
vt 1.006755 1.000000
vt 0.006755 1.000000
vt 0.750000 1.000000
vt 1.000000 0.500000
vt 0.750000 0.000000
vt 0.500000 0.500000
vt 0.250000 -0.000000
vt -0.000000 0.500000
vt 0.250000 1.000000
vt 0.750000 1.000000
vn 0.000000 -0.463753 -0.885965
vn 0.000000 -0.463753 -0.885965
vn 0.000000 -0.463753 -0.885965
vn 0.000000 -0.463753 -0.885965
vn -0.000000 -1.000000 -0.000138
vn -0.000000 -1.000000 -0.000138
vn -0.000000 -1.000000 -0.000138
vn -0.000000 -1.000000 -0.000138
vn 0.000000 -0.487984 0.872853
vn 0.000000 -0.487984 0.872853
vn 0.000000 -0.487984 0.872853
vn 0.000000 -0.487984 0.872853
vn 0.000000 0.509140 0.860684
vn 0.000000 0.509140 0.860684
vn 0.000000 0.509140 0.860684
vn 0.000000 0.509140 0.860684
vn 0.000000 0.999513 -0.031203
vn 0.000000 0.999513 -0.031203
vn 0.000000 0.999513 -0.031203
vn 0.000000 0.999513 -0.031203
vn 0.000000 0.541906 -0.840439
vn 0.000000 0.541906 -0.840439
vn 0.000000 0.541906 -0.840439
vn 0.000000 0.541906 -0.840439
vn 1.000000 0.000000 0.000000
vn 1.000000 0.000000 0.000000
vn 1.000000 0.000000 0.000000
vn 1.000000 0.000000 0.000000
vn 1.000000 0.000000 0.000000
vn 1.000000 -0.000000 -0.000000
vn 1.000000 -0.000000 -0.000000
vn -1.000000 0.000000 0.000000
vn -1.000000 0.000000 0.000000
vn -1.000000 0.000000 0.000000
vn -1.000000 -0.000000 -0.000000
vn -1.000000 -0.000000 -0.000000
vn -1.000000 -0.000000 -0.000000
vn -1.000000 -0.000000 -0.000000
s off
g pCylinder1
usemtl phong18SG
f 1/7/1 2/8/2 8/9/3 7/10/4
f 2/8/5 3/11/6 9/12/7 8/9/8
f 3/11/9 4/13/10 10/14/11 9/12/12
f 4/13/13 5/15/14 11/16/15 10/14/16
f 5/15/17 6/17/18 12/18/19 11/16/20
f 6/17/21 1/7/22 7/10/23 12/18/24
s 1
f 2/1/25 1/2/26 13/3/27
f 3/4/28 2/1/25 13/3/27
f 4/5/29 3/4/28 13/3/27
f 5/6/30 4/5/29 13/3/27
f 6/19/31 5/6/30 13/3/27
f 1/2/26 6/19/31 13/3/27
s 2
f 7/20/32 8/21/33 14/22/34
f 8/21/33 9/23/35 14/22/34
f 9/23/35 10/24/36 14/22/34
f 10/24/36 11/25/37 14/22/34
f 11/25/37 12/26/38 14/22/34
f 12/26/38 7/20/32 14/22/34
